<?xml version="1.0" encoding="UTF-8"?>
<svg version="1.1" xmlns="http://www.w3.org/2000/svg" width="512" height="512">
<path d="M0 0 C1.58143983 -0.00407326 3.1628768 -0.00941934 4.74430847 -0.01593018 C9.00872734 -0.02951888 13.27292664 -0.02434063 17.53734899 -0.01479292 C22.01696532 -0.00715359 26.49656389 -0.01425361 30.97618103 -0.01895142 C38.49522244 -0.02439602 46.0141752 -0.01725087 53.53320312 -0.00292969 C62.20666639 0.01340028 70.8799181 0.00810059 79.55337626 -0.0084089 C87.02292528 -0.02205368 94.49241089 -0.02392902 101.96196836 -0.0160929 C106.41334621 -0.01143355 110.86462483 -0.01074352 115.31599617 -0.02070236 C119.50140909 -0.02941366 123.68655102 -0.0232747 127.87193489 -0.00601959 C129.40128125 -0.00207712 130.93065069 -0.00315007 132.45998764 -0.00980759 C147.03416727 -0.06736861 159.3588508 2.63807414 170.41381836 12.66943359 C177.6258365 20.2975297 183.10628603 31.14868164 183.19703674 41.77947998 C183.21171997 43.08771477 183.21171997 43.08771477 183.22669983 44.42237854 C183.23245529 45.3711235 183.23821075 46.31986847 183.24414062 47.29736328 C183.25404022 48.30256516 183.26393982 49.30776703 183.2741394 50.34342957 C183.30572408 53.66561529 183.33049995 56.98781531 183.35522461 60.31005859 C183.37579675 62.61363089 183.39679329 64.91719944 183.41819763 67.22076416 C183.47339144 73.28372152 183.52281265 79.3467128 183.57104492 85.409729 C183.62127954 91.59658832 183.67695539 97.78339839 183.73217773 103.97021484 C183.83972642 116.10949569 183.94117876 128.24881929 184.03881836 140.38818359 C186.78592583 136.41210699 188.54637475 132.97211754 190.03881836 128.38818359 C195.20208069 125.80655243 202.57920424 128.38605211 207.78881836 130.01318359 C216.79870935 133.2185135 226.76247951 136.94825383 233.03881836 144.38818359 C232.95975417 148.34139284 232.24118093 150.08463974 230.03881836 153.38818359 C229.31364444 157.8910077 229.438818 161.38104014 231.78881836 165.32568359 C234.51184007 167.82178683 236.52560482 169.35671295 240.29272461 169.43505859 C241.05456055 169.33708984 241.81639648 169.23912109 242.60131836 169.13818359 C243.36573242 169.05052734 244.13014648 168.96287109 244.91772461 168.87255859 C247.32294729 168.455543 247.32294729 168.455543 250.03881836 166.38818359 C252.85131836 165.70068359 252.85131836 165.70068359 256.03881836 166.38818359 C264.61142203 175.204453 269.93672554 190.54397786 272.03881836 202.38818359 C271.90600586 205.66552734 271.90600586 205.66552734 271.03881836 208.38818359 C269.11303711 209.70849609 269.11303711 209.70849609 266.72631836 210.51318359 C262.25062473 212.22092043 259.24595822 213.97390388 257.03881836 218.38818359 C256.52278789 222.69407718 256.49178573 226.26925322 258.41381836 230.20068359 C261.66280692 232.90817406 264.86168372 233.92808141 268.89428711 235.10302734 C271.03881836 236.38818359 271.03881836 236.38818359 271.95678711 239.02880859 C272.05415822 243.01638737 271.3172544 246.42360834 270.16381836 250.20068359 C269.9462085 250.929729 269.72859863 251.65877441 269.50439453 252.40991211 C266.74306689 261.0776445 262.54253952 271.88446243 256.03881836 278.38818359 C252.02567876 278.7740624 249.64432304 278.70355061 246.03881836 276.82568359 C242.13619699 274.95567752 240.16542075 275.18771744 236.03881836 276.38818359 C233.45584055 278.57809957 231.55465992 280.35650047 230.03881836 283.38818359 C229.6462976 289.27599505 230.33319154 292.0945659 233.03881836 297.38818359 C232.82279418 300.26400543 232.56271338 301.84659861 230.53491211 303.94287109 C220.70325693 310.24856265 207.1616648 317.72179373 195.22631836 317.63818359 C194.47737305 317.64333984 193.72842773 317.64849609 192.95678711 317.65380859 C191.03881836 317.38818359 191.03881836 317.38818359 189.03881836 315.38818359 C188.22700167 313.10999645 187.57854129 310.8080083 186.91772461 308.48193359 C186.12112119 306.04402711 186.12112119 306.04402711 183.03881836 304.38818359 C183.04881111 305.9146199 183.04881111 305.9146199 183.05900574 307.47189331 C183.11999586 317.09310222 183.16487664 326.71427157 183.19425488 336.33563042 C183.2098666 341.28129043 183.23102228 346.22679354 183.26513672 351.17236328 C183.29789107 355.95102593 183.31570512 360.72953829 183.32345009 365.5083046 C183.32896486 367.32543425 183.33973345 369.14255629 183.35600853 370.95962143 C183.4781022 385.16448794 182.09964163 395.32936487 174.03881836 407.38818359 C173.46131836 408.27505859 172.88381836 409.16193359 172.28881836 410.07568359 C164.78830323 417.78454636 153.99291237 424.03063317 143.05292606 424.52240467 C141.87885417 424.52667815 140.70478228 424.53095163 139.49513245 424.53535461 C138.83935162 424.5390313 138.18357079 424.54270799 137.50791782 424.54649609 C135.31191119 424.55750301 133.11595193 424.56137175 130.91992188 424.56518555 C129.34438427 424.57145274 127.76884813 424.57809976 126.1933136 424.58509827 C121.0181277 424.60612045 115.84294158 424.61650274 110.66772461 424.62646484 C108.88249127 424.63051387 107.09725809 424.63463083 105.31202507 424.63881493 C96.91907523 424.65786693 88.52613415 424.67209482 80.13316685 424.6804269 C70.4667567 424.69018294 60.80057654 424.7164596 51.13424736 424.75692779 C43.65037175 424.78717577 36.1665617 424.80190419 28.68262619 424.80520791 C24.21924277 424.80754958 19.75610501 424.81639351 15.29278755 424.84166908 C11.08609919 424.86510559 6.87981549 424.86912114 2.67307854 424.8589077 C1.13852968 424.8584159 -0.39604015 424.86462999 -1.93052673 424.87846375 C-17.31101774 425.00923538 -29.9091628 422.11075287 -41.21508789 411.21630859 C-53.07414439 398.54917642 -54.41968466 383.93131907 -54.30175781 367.23681641 C-54.30090989 365.54048681 -54.3013899 363.84415611 -54.30308533 362.14782715 C-54.30394026 357.57833714 -54.28639648 353.00908707 -54.26536345 348.43965244 C-54.24651232 343.65108545 -54.2448396 338.86251195 -54.24128723 334.07391357 C-54.23199142 325.02193936 -54.20741124 315.97007484 -54.17723876 306.91814876 C-54.14361773 296.60611119 -54.12718943 286.29406818 -54.11215246 275.98198938 C-54.08085931 254.78399308 -54.02814711 233.58609527 -53.96118164 212.38818359 C-54.94924805 212.40913086 -55.93731445 212.43007813 -56.95532227 212.45166016 C-60.65276355 212.52455367 -64.35014251 212.57016053 -68.0480957 212.60791016 C-69.64260572 212.62791413 -71.23704342 212.6551266 -72.83129883 212.68994141 C-89.2754992 213.03981801 -89.2754992 213.03981801 -95.96118164 208.38818359 C-98.01977539 206.35302734 -98.01977539 206.35302734 -99.39868164 204.32568359 C-100.10831055 203.31828125 -100.10831055 203.31828125 -100.83227539 202.29052734 C-103.16696381 198.3562946 -103.10332857 194.95603039 -103.13818359 190.47338867 C-103.14475479 189.77379028 -103.15132599 189.07419189 -103.15809631 188.35339355 C-103.17780456 186.03816616 -103.18948815 183.72300366 -103.19946289 181.40771484 C-103.20353842 180.61507421 -103.20761395 179.82243359 -103.21181297 179.00577354 C-103.2326661 174.80796953 -103.24696942 170.6101981 -103.25634766 166.41235352 C-103.26739295 162.08928652 -103.30177284 157.76673696 -103.34151936 153.44385242 C-103.3677453 150.10911646 -103.3760449 146.77450248 -103.37962914 143.43967247 C-103.38448198 141.84695643 -103.39605869 140.25424536 -103.41466713 138.66163063 C-103.59859431 121.87261227 -103.59859431 121.87261227 -97.25024414 114.36474609 C-96.70110352 113.91873047 -96.15196289 113.47271484 -95.58618164 113.01318359 C-94.77020508 112.32095703 -94.77020508 112.32095703 -93.93774414 111.61474609 C-88.94881671 108.51885042 -84.14224882 108.14673506 -78.37524414 108.19287109 C-77.67346039 108.19570099 -76.97167664 108.19853088 -76.24862671 108.20144653 C-74.02763136 108.21255847 -71.80705319 108.23764526 -69.58618164 108.26318359 C-68.07186459 108.27322505 -66.55754115 108.28234886 -65.04321289 108.29052734 C-61.34906906 108.31246805 -57.65516613 108.34693484 -53.96118164 108.38818359 C-53.96784348 107.56292175 -53.97450531 106.73765991 -53.98136902 105.88739014 C-54.04179425 98.06217128 -54.08731435 90.2370322 -54.11661816 82.41163254 C-54.13219063 78.38971654 -54.15327232 74.36799534 -54.1875 70.34619141 C-54.22039731 66.45580413 -54.23809773 62.56560275 -54.24581337 58.67508698 C-54.25130297 57.20011728 -54.26202063 55.7251563 -54.27837181 54.25026703 C-54.45181967 37.93768571 -51.86584027 24.86521406 -40.51196289 12.78662109 C-28.58444083 1.57146252 -15.76060679 -0.06870889 0 0 Z M-35.05102539 22.91552734 C-42.90586173 33.08344433 -42.96118164 41.2532264 -42.96118164 54.38818359 C27.98881836 54.38818359 98.93881836 54.38818359 172.03881836 54.38818359 C172.03881836 40.08729525 171.86839885 30.52289519 162.03881836 20.38818359 C151.83406938 12.03884352 142.28395622 10.93999446 129.54174805 10.96826172 C127.9738454 10.96091338 126.40594816 10.95232493 124.83805847 10.94259644 C120.59607798 10.92044863 116.35429214 10.91744648 112.11226177 10.91934395 C108.56144003 10.919464 105.010659 10.91088563 101.45984864 10.90256643 C93.07582501 10.88335542 84.69190093 10.88043965 76.30786133 10.88720703 C67.68268412 10.89384153 59.05793525 10.87100208 50.43284488 10.8338933 C43.00747947 10.8031152 35.58225125 10.79184517 28.1568234 10.79573011 C23.73095108 10.79778978 19.30541197 10.79244061 14.87960052 10.76783752 C10.71296979 10.74543917 6.54703087 10.74755563 2.38039589 10.76776505 C0.85994482 10.77115246 -0.66055401 10.76618491 -2.18094063 10.75178146 C-15.31451991 10.63604482 -25.87810838 12.94351774 -35.05102539 22.91552734 Z M-42.96118164 65.38818359 C-42.96118164 79.57818359 -42.96118164 93.76818359 -42.96118164 108.38818359 C-34.88842773 108.42685547 -34.88842773 108.42685547 -26.65258789 108.46630859 C-23.23001513 108.49149421 -19.80752924 108.51784021 -16.38500977 108.54833984 C-10.96028384 108.59657236 -5.53575917 108.64065539 -0.11083984 108.65917969 C4.26605867 108.67439532 8.6424284 108.70892705 13.01909065 108.75649261 C14.68346608 108.77125605 16.34791702 108.7792217 18.01235771 108.78006744 C36.95336003 108.79936 36.95336003 108.79936 43.60301208 114.79962158 C48.28635768 120.00390553 49.28861703 124.72213698 49.31347656 131.56176758 C49.31858749 132.26487061 49.32369843 132.96797363 49.32896423 133.69238281 C49.34281432 136.0064353 49.34190701 138.32018844 49.33959961 140.63427734 C49.34348898 142.24943654 49.34782415 143.86459472 49.35258484 145.47975159 C49.36003712 148.86145344 49.35976293 152.24305087 49.35449219 155.62475586 C49.3486979 159.95013755 49.36563214 164.27509098 49.38883686 168.60040188 C49.40359557 171.93506859 49.40444302 175.26963266 49.40132713 178.60432625 C49.40183924 180.19866853 49.40705619 181.79301672 49.41713905 183.38732719 C49.42952845 185.62023327 49.42269766 187.85231144 49.41113281 190.08520508 C49.41176224 191.35363754 49.41239166 192.62207001 49.41304016 193.92893982 C48.72642942 200.27585469 45.79872628 204.29244887 41.03881836 208.38818359 C36.39965415 211.19035001 32.51514845 211.83124947 27.19750977 211.82055664 C26.03669923 211.83596733 26.03669923 211.83596733 24.85243797 211.85168934 C22.36500457 211.88141008 19.87796676 211.89109277 17.39038086 211.89990234 C15.84764236 211.91537946 14.30491653 211.9321783 12.76220703 211.95031738 C7.0628839 212.00810466 1.36332502 212.04036599 -4.33618164 212.07568359 C-17.08243164 212.17880859 -29.82868164 212.28193359 -42.96118164 212.38818359 C-42.96118164 252.97818359 -42.96118164 293.56818359 -42.96118164 335.38818359 C27.98881836 335.38818359 98.93881836 335.38818359 172.03881836 335.38818359 C172.03881836 324.49818359 172.03881836 313.60818359 172.03881836 302.38818359 C165.63462975 306.23069676 164.14884768 309.40885583 162.03881836 316.38818359 C148.00429255 317.61928235 134.75853762 310.42001515 123.03881836 303.38818359 C121.03881836 301.38818359 121.03881836 301.38818359 120.72631836 299.07568359 C121.03881836 296.38818359 121.03881836 296.38818359 122.53881836 294.07568359 C124.53672994 290.49609202 124.7226488 287.35129185 124.03881836 283.38818359 C122.10439505 279.28720619 120.60345318 277.71232581 116.66381836 275.45068359 C112.17193632 274.13409748 109.18957568 274.24559376 105.03881836 276.45068359 C102.14618804 277.80660406 100.20402788 277.79174781 97.03881836 277.38818359 C88.207471 268.05357931 82.26182799 251.09973228 82.03881836 238.38818359 C83.03881836 236.38818359 83.03881836 236.38818359 84.92944336 235.74755859 C85.70803711 235.54646484 86.48663086 235.34537109 87.28881836 235.13818359 C92.32691226 233.51506562 94.38221716 232.01581148 97.03881836 227.38818359 C97.95732819 222.81203641 97.44604078 219.36921943 95.66381836 215.07568359 C92.45476095 211.79022005 89.54808006 210.86516492 85.18334961 209.63818359 C83.03881836 208.38818359 83.03881836 208.38818359 82.12084961 205.75146484 C82.02355047 201.76219997 82.76018893 198.35439065 83.91381836 194.57568359 C84.23914551 193.48320312 84.23914551 193.48320312 84.57104492 192.36865234 C87.0972963 184.42609081 91.05277944 173.37422251 97.03881836 167.38818359 C102.00160948 166.92652861 104.66876317 168.203156 109.03881836 170.38818359 C112.9923568 170.96474128 114.67035629 170.58325175 118.22631836 168.70068359 C121.57627306 165.94627639 123.67528021 163.87236093 124.32006836 159.46630859 C124.53338555 154.73777753 123.49297929 152.44288426 121.03881836 148.38818359 C121.12084961 145.46240234 121.12084961 145.46240234 122.03881836 142.38818359 C132.51806943 133.40854949 149.32171552 127.89828706 163.03881836 128.38818359 C163.28631836 129.60505859 163.53381836 130.82193359 163.78881836 132.07568359 C164.76491655 135.98007636 166.1492867 138.49865193 169.03881836 141.38818359 C170.02881836 141.71818359 171.01881836 142.04818359 172.03881836 142.38818359 C172.03881836 116.97818359 172.03881836 91.56818359 172.03881836 65.38818359 C101.08881836 65.38818359 30.13881836 65.38818359 -42.96118164 65.38818359 Z M-90.71118164 124.32568359 C-92.80365081 127.77825773 -93.00081756 130.55612617 -92.98071289 134.52880859 C-92.97426758 135.80240234 -92.96782227 137.07599609 -92.96118164 138.38818359 C-91.92392944 138.42576782 -91.92392944 138.42576782 -90.86572266 138.46411133 C-87.75150298 138.57970521 -84.63761375 138.70259601 -81.52368164 138.82568359 C-80.43506836 138.865 -79.34645508 138.90431641 -78.22485352 138.94482422 C-77.19038086 138.98671875 -76.1559082 139.02861328 -75.09008789 139.07177734 C-74.13175049 139.10843506 -73.17341309 139.14509277 -72.18603516 139.18286133 C-69.96118164 139.38818359 -69.96118164 139.38818359 -68.96118164 140.38818359 C-68.83618164 143.38818359 -68.83618164 143.38818359 -68.96118164 146.38818359 C-70.64418833 148.07119028 -72.78126891 147.61627436 -75.09008789 147.70458984 C-76.12456055 147.74648437 -77.1590332 147.78837891 -78.22485352 147.83154297 C-79.3134668 147.87085938 -80.40208008 147.91017578 -81.52368164 147.95068359 C-83.16240234 148.01545898 -83.16240234 148.01545898 -84.83422852 148.08154297 C-87.54307728 148.18800427 -90.25202156 148.29001876 -92.96118164 148.38818359 C-93.01079523 154.24144265 -93.04700229 160.09457799 -93.07104492 165.94799805 C-93.081073 167.93727757 -93.09469881 169.92654245 -93.11206055 171.91577148 C-93.13644955 174.78291445 -93.1476969 177.6498617 -93.15649414 180.51708984 C-93.16681671 181.39965958 -93.17713928 182.28222931 -93.18777466 183.19154358 C-93.18869549 188.31404241 -92.77188399 192.57373155 -90.96118164 197.38818359 C-86.9978174 201.24992311 -83.80366102 202.5089107 -78.35087585 202.52862549 C-77.40462341 202.53433563 -76.45837097 202.54004578 -75.48344421 202.54592896 C-73.92881218 202.54760574 -73.92881218 202.54760574 -72.34277344 202.54931641 C-71.24981964 202.55428131 -70.15686584 202.55924622 -69.03079224 202.56436157 C-65.40732193 202.57899237 -61.78389541 202.58578674 -58.16040039 202.59130859 C-55.64557392 202.59705927 -53.13074746 202.60281701 -50.61592102 202.60858154 C-46.01385879 202.61774997 -41.41180914 202.62404923 -36.80973881 202.62707829 C-30.04281031 202.63155708 -23.276084 202.64909785 -16.50921696 202.67807889 C-10.64286956 202.70232841 -4.77658945 202.71002399 1.0898037 202.71175385 C3.5828785 202.7147821 6.07595242 202.72281639 8.56899452 202.73593903 C12.05689445 202.75298772 15.54430191 202.75112185 19.03222656 202.74462891 C20.06257523 202.75384369 21.09292389 202.76305847 22.15449524 202.77255249 C28.47336755 202.7356924 33.10010451 202.13098319 37.91381836 197.63818359 C39.46848912 194.52884206 39.11064139 191.81972837 39.03881836 188.38818359 C38.46696808 188.38009674 37.8951178 188.37200989 37.30593872 188.36367798 C31.36884837 188.27780412 25.43209855 188.17830886 19.49536133 188.07080078 C17.27797146 188.03245225 15.06051812 187.99760988 12.84301758 187.96630859 C9.66065747 187.92078534 6.47873654 187.8627704 3.29663086 187.80224609 C2.30075958 187.79069489 1.30488831 187.77914368 0.27883911 187.76724243 C-0.64196442 187.74737274 -1.56276794 187.72750305 -2.51147461 187.70703125 C-3.32421844 187.69370758 -4.13696228 187.68038391 -4.97433472 187.66665649 C-6.96118164 187.38818359 -6.96118164 187.38818359 -8.96118164 185.38818359 C-9.21118164 182.88818359 -9.21118164 182.88818359 -8.96118164 180.38818359 C-6.52359256 177.95059451 -5.85784021 178.12419439 -2.51147461 178.06933594 C-1.59067108 178.04946625 -0.66986755 178.02959656 0.27883911 178.00912476 C1.27471039 177.99757355 2.27058167 177.98602234 3.29663086 177.97412109 C4.31481903 177.95475494 5.3330072 177.93538879 6.38204956 177.91543579 C9.64255325 177.85553005 12.90309203 177.80921061 16.16381836 177.76318359 C18.37086523 177.72501394 20.57789705 177.68596282 22.78491211 177.64599609 C28.20274747 177.54981966 33.62067308 177.4648046 39.03881836 177.38818359 C39.16576935 170.2350564 39.25323338 163.08222053 39.31347656 155.92822266 C39.33859465 153.49549503 39.3726954 151.06284267 39.41601562 148.63037109 C39.4767828 145.130182 39.50505619 141.6309921 39.52709961 138.13037109 C39.55290604 137.04577606 39.57871246 135.96118103 39.6053009 134.84371948 C39.65330618 128.32646823 39.65330618 128.32646823 36.69580078 122.71679688 C33.20693672 119.65911191 30.82212362 119.26361622 26.34585571 119.2477417 C25.3813298 119.24203156 24.41680389 119.23632141 23.42304993 119.23043823 C21.83800911 119.22876144 21.83800911 119.22876144 20.22094727 119.22705078 C19.10688004 119.22208588 17.99281281 119.21712097 16.84498596 119.21200562 C13.15177803 119.19737515 9.45861304 119.19058085 5.76538086 119.18505859 C3.20331826 119.17930832 0.64125568 119.17355058 -1.92080688 119.16778564 C-6.60863833 119.15861758 -11.29645256 119.15231798 -15.98429143 119.14928889 C-22.88083938 119.14480791 -29.77718916 119.12725644 -36.67367685 119.0982883 C-42.65002456 119.07405768 -48.62627858 119.06634416 -54.60268021 119.06461334 C-57.14402979 119.06158274 -59.68537845 119.05354057 -62.22669601 119.04042816 C-65.77945796 119.02340412 -69.33173548 119.02523918 -72.88452148 119.03173828 C-73.9371669 119.0225235 -74.98981232 119.01330872 -76.07435608 119.0038147 C-82.34904999 119.03983404 -86.32250579 119.46679247 -90.71118164 124.32568359 Z M144.60131836 142.13818359 C143.93293945 142.39083984 143.26456055 142.64349609 142.57592773 142.90380859 C138.59213553 144.48311175 135.82113713 146.11486739 133.03881836 149.38818359 C133.53381836 150.87318359 133.53381836 150.87318359 134.03881836 152.38818359 C134.96572733 160.3463592 133.94331649 166.90926227 129.03881836 173.38818359 C122.51141916 179.19556227 116.68182666 180.69144704 108.03881836 180.38818359 C106.03234525 180.09633296 104.02887643 179.77648761 102.03881836 179.38818359 C98.08029985 185.69249085 95.59691105 192.4163326 93.03881836 199.38818359 C95.24402799 201.63108911 97.4268494 203.61878526 100.03881836 205.38818359 C100.69881836 205.38818359 101.35881836 205.38818359 102.03881836 205.38818359 C102.72656241 206.71076831 103.38593209 208.04804862 104.03881836 209.38818359 C104.57506836 210.37818359 105.11131836 211.36818359 105.66381836 212.38818359 C108.15754978 218.39113501 108.02455742 224.99286017 106.23022461 231.17333984 C103.36857154 237.73830865 99.27008522 241.04855037 93.03881836 244.38818359 C93.61276672 246.39089702 94.1985139 248.39023004 94.78881836 250.38818359 C95.11366211 251.50193359 95.43850586 252.61568359 95.77319336 253.76318359 C97.19862486 257.84590097 99.01979792 261.57310204 101.03881836 265.38818359 C102.24538086 265.33017578 103.45194336 265.27216797 104.69506836 265.21240234 C120.2063921 264.69449504 120.2063921 264.69449504 127.03881836 270.38818359 C127.69881836 270.38818359 128.35881836 270.38818359 129.03881836 270.38818359 C129.72656241 271.71076831 130.38593209 273.04804862 131.03881836 274.38818359 C131.57506836 275.37818359 132.11131836 276.36818359 132.66381836 277.38818359 C135.25848591 283.4293035 134.88265092 291.15781388 133.03881836 297.38818359 C135.3877211 298.54600824 137.74201918 299.6893953 140.10131836 300.82568359 C140.7580957 301.15117187 141.41487305 301.47666016 142.09155273 301.81201172 C146.46225674 303.9004762 150.21081272 304.94242495 155.03881836 305.38818359 C155.2953418 304.86869141 155.55186523 304.34919922 155.81616211 303.81396484 C159.07715272 297.87391123 162.69320734 294.79370934 169.03881836 292.38818359 C176.51648591 290.42851899 183.44182897 291.5896889 190.28881836 295.01318359 C193.77648924 298.02526299 195.83856463 301.37710157 198.03881836 305.38818359 C203.66513762 304.86871849 207.93591412 303.32362681 212.97631836 300.82568359 C213.66016602 300.49632812 214.34401367 300.16697266 215.04858398 299.82763672 C216.71613707 299.0230132 218.37808675 298.2067939 220.03881836 297.38818359 C219.88026367 296.84677734 219.72170898 296.30537109 219.55834961 295.74755859 C217.99920394 288.66692712 218.10370245 281.38612524 221.83959961 275.06787109 C225.19117591 270.37348083 228.69917708 267.52651216 234.03881836 265.38818359 C237.6816539 265.13075655 241.30454298 265.46007512 244.93725586 265.76904297 C247.42956599 265.94318155 247.42956599 265.94318155 251.03881836 265.38818359 C254.74077098 261.42180579 256.21841874 256.6095748 257.78881836 251.51318359 C258.00924805 250.82482422 258.22967773 250.13646484 258.45678711 249.42724609 C258.9925066 247.75021116 259.51686613 246.06955429 260.03881836 244.38818359 C259.43553711 244.03626953 258.83225586 243.68435547 258.21069336 243.32177734 C251.59054883 239.23223645 248.52889773 235.8584217 246.03881836 228.38818359 C245.15896816 220.13016104 245.8310424 213.09408688 251.03881836 206.38818359 C253.86634421 204.02403154 256.79367255 202.12741207 260.03881836 200.38818359 C257.76329929 192.87515694 255.16404126 186.08321748 251.03881836 179.38818359 C250.21381836 179.55318359 249.38881836 179.71818359 248.53881836 179.88818359 C239.5430627 181.17329155 233.39289214 180.23507799 225.78881836 175.26318359 C219.2125991 168.38804528 218.64599679 161.75867251 218.83422852 152.62133789 C218.88868419 150.87647011 218.96178204 149.13220034 219.03881836 147.38818359 C212.10008358 143.65465118 205.83751942 140.6879671 198.03881836 139.38818359 C197.51094727 140.29310547 197.51094727 140.29310547 196.97241211 141.21630859 C193.2344496 147.26731839 190.10711408 150.89810465 183.08569336 152.96240234 C175.50563421 154.53917037 168.75141319 153.21389324 162.03881836 149.38818359 C158.87619814 146.62458555 156.67467836 143.25476179 155.03881836 139.38818359 C151.17963791 139.38818359 148.12898251 140.73117661 144.60131836 142.13818359 Z M-42.96118164 345.38818359 C-45.53255279 378.37599146 -45.53255279 378.37599146 -32.14477539 404.29833984 C-22.73927788 413.24781323 -12.6453624 413.97835415 -0.20532227 413.90576172 C1.36612087 413.91119136 2.9375589 413.91831872 4.50898743 413.92700195 C8.75079548 413.94513836 12.99221161 413.93820816 17.23402596 413.92548561 C21.68829473 413.91530744 26.14253156 413.9247646 30.59680176 413.93103027 C38.07476786 413.93829272 45.55257557 413.92875592 53.03051758 413.90966797 C61.6568698 413.8879019 70.28284377 413.89495426 78.90918684 413.91697359 C86.33626765 413.93516769 93.76323507 413.93766637 101.19033098 413.92721891 C105.61715927 413.92100597 110.04381018 413.92008744 114.47062683 413.93336487 C118.63394426 413.94498137 122.79677744 413.93679278 126.96004295 413.91378784 C128.48132209 413.90853153 130.00264249 413.90996135 131.5239048 413.9188385 C143.70163431 413.98330937 154.00708158 412.14799712 163.03881836 403.38818359 C177.14860531 386.14288843 172.03881836 369.1777976 172.03881836 345.38818359 C101.08881836 345.38818359 30.13881836 345.38818359 -42.96118164 345.38818359 Z " fill="#000000" transform="translate(188.961181640625,43.61181640625)"/>
<path d="M0 0 C10.1390995 8.2273501 15.62619204 19.50476816 18.75 32 C19.91549002 45.98588021 17.75082533 59.30008361 8.95703125 70.6328125 C0.82570618 80.00972782 -9.29515041 88.24448659 -22 90 C-38.43887568 90.99937832 -51.89806535 88.99229153 -65.3125 78.625 C-76.05954444 68.12788683 -81.82734228 55.06785777 -82.3125 40.125 C-82.02631434 26.17344918 -77.00625832 14.38675463 -67.44921875 4.32421875 C-48.55593078 -13.60481848 -21.11841146 -14.89655653 0 0 Z M-62.25 15.25 C-69.93727264 24.17569378 -71.75203091 34.54926528 -71 46 C-69.17538799 57.23224457 -62.73299059 66.65126792 -53.66796875 73.34375 C-44.04469728 79.31778675 -33.57302427 81.10727767 -22.5 79 C-11.29525732 76.03599334 -3.16757437 69.77502353 3 60 C8.20287538 49.59424924 9.52202645 39.63116929 6.375 28.375 C2.96640691 18.24423378 -4.01172422 9.88610849 -13.4375 4.64453125 C-31.46060529 -3.56665323 -48.926016 1.33711063 -62.25 15.25 Z " fill="#000000" transform="translate(397,226)"/>
<path d="M0 0 C6.07352191 4.88522415 11.43353312 10.43591309 12.875 18.3125 C13.84940826 28.49506628 12.85362252 37.28498002 6.625 45.625 C0.10484437 51.99697027 -7.14898255 55.5738791 -16.375 55.6875 C-25.58440182 55.5093887 -32.63813464 52.69540592 -39.3671875 46.375 C-44.9337112 39.84361219 -47.50854174 32.08356439 -47.33203125 23.546875 C-46.53941933 14.99264825 -43.1363377 8.39597376 -37.125 2.3125 C-25.99523964 -6.81390349 -12.29763598 -6.64072343 0 0 Z M-32.5625 14.3125 C-36.01658519 19.13127825 -36.61722911 23.40575072 -36.125 29.3125 C-34.14466378 35.48017366 -30.47056934 39.72811592 -25.125 43.3125 C-19.87318379 45.0631054 -14.06442151 45.3697037 -8.80078125 43.4765625 C-3.75361691 40.61169588 -0.09992903 36.81149963 1.875 31.3125 C2.8450138 25.40495693 2.78122957 20.08762679 -0.25 14.8125 C-3.11673756 10.90626554 -6.48280345 8.36937862 -11 6.5625 C-20.19740501 5.48045235 -26.66297654 6.76561558 -32.5625 14.3125 Z " fill="#000000" transform="translate(93.125,348.6875)"/>
<path d="M0 0 C6.01278694 4.55982557 9.1185398 10.5158161 10.58203125 17.77734375 C11.7367542 26.69001118 10.2164752 33.55777465 4.91796875 40.859375 C-0.23064249 46.79048443 -6.07052997 50.38602664 -13.96875 51.23828125 C-24.42834412 51.36599302 -31.44055616 49.07716231 -39.12890625 41.87890625 C-44.31534263 35.94149266 -45.94111142 28.646888 -45.85546875 20.90234375 C-45.29549729 13.83717188 -42.53315733 8.19708912 -37.85546875 2.90234375 C-26.35309914 -6.88512712 -12.91958799 -7.64295626 0 0 Z M-32.29296875 13.65234375 C-34.59302058 18.43645156 -35.73199702 22.86443831 -34.2265625 28.08203125 C-31.78361389 33.49944867 -28.21658963 37.22178331 -22.85546875 39.90234375 C-17.5997171 40.42620135 -13.2102078 40.56739747 -8.41796875 38.21484375 C-4.02000403 34.24594876 -1.12448146 30.78594813 0.14453125 24.90234375 C0.24698196 19.22202099 -1.14709239 15.31230483 -4.85546875 10.90234375 C-9.69128198 7.25081131 -13.51532922 5.46800468 -19.6640625 5.55859375 C-25.0142273 6.39783529 -28.80053669 9.71216399 -32.29296875 13.65234375 Z " fill="#000000" transform="translate(382.85546875,243.09765625)"/>
<path d="M0 0 C5.31434943 4.7167519 8.91216653 9.90045526 10 17 C10.22799156 23.93887344 9.18117812 30.33749021 5 36 C-0.83063984 42.1721836 -6.14208189 45.21315148 -14.60546875 45.95703125 C-22.57588484 46.10005666 -28.24631733 43.41449177 -34 38 C-39.36436389 32.67648152 -40.62394893 26.40531341 -41 19 C-40.43521611 11.43881159 -37.32112469 6.0407797 -31.875 0.8125 C-22.62342406 -6.68344639 -9.64518859 -6.92372459 0 0 Z M-26.8125 11.6875 C-29.5988857 15.90688406 -30 17.95705262 -30 23 C-28.28230646 28.15308061 -25.50587967 31.02441909 -21 34 C-17.03460807 35.29013749 -13.80881233 35.26960411 -9.8125 33.9375 C-5.30959351 30.83549775 -2.01453814 27.60712414 -0.9375 22.125 C-0.64750309 17.39442536 -2.0170297 13.66386569 -5 10 C-8.3047607 7.54896914 -11.58008136 6.23665311 -15.625 5.5625 C-20.36490681 6.43564073 -23.34859546 8.37754678 -26.8125 11.6875 Z " fill="#000000" transform="translate(461,78)"/>
<path d="M0 0 C3.21972656 1.55053711 3.21972656 1.55053711 6.640625 3.52734375 C7.24888123 3.87632217 7.85713745 4.2253006 8.48382568 4.58485413 C9.76025259 5.31944678 11.03417255 6.05841115 12.30566406 6.80151367 C14.25300425 7.93925525 16.20767672 9.0634444 18.1640625 10.18554688 C27.67700754 15.67700754 27.67700754 15.67700754 30 18 C30.53125 21.3515625 30.53125 21.3515625 30 25 C27.76476681 26.92050208 26.06412817 28.05827698 23.5 29.375 C22.83379639 29.74367187 22.16759277 30.11234375 21.48120117 30.4921875 C20.06403173 31.27452979 18.64085648 32.04607438 17.21240234 32.80761719 C14.97754711 34.01210107 12.77833945 35.265798 10.58203125 36.5390625 C-1.16328571 43.31541076 -1.16328571 43.31541076 -5 44 C-7.1875 43.25 -7.1875 43.25 -9 42 C-10.21540879 38.35377364 -10.16223982 34.98838833 -10.16796875 31.19140625 C-10.17129715 30.42827621 -10.17462555 29.66514618 -10.17805481 28.87889099 C-10.18311409 27.26586509 -10.18546344 25.65282875 -10.18530273 24.03979492 C-10.18748875 21.57518232 -10.20565332 19.11101777 -10.22460938 16.64648438 C-10.22754362 15.07812653 -10.22952821 13.50976656 -10.23046875 11.94140625 C-10.23765427 11.20588028 -10.24483978 10.47035431 -10.25224304 9.71253967 C-10.23575573 6.01093481 -10.18461926 3.08075018 -8 0 C-5.02980561 -1.48509719 -3.20158742 -0.76190938 0 0 Z M1 14 C1 18.62 1 23.24 1 28 C6.21934251 26.28666874 6.21934251 26.28666874 10.875 23.875 C11.90625 23.25625 12.9375 22.6375 14 22 C9.94992375 18.45618328 5.82655879 16.29057027 1 14 Z " fill="#000000" transform="translate(152,183)"/>
<path d="M0 0 C4.35181472 4.47269846 6.47038364 9.04523683 6.75 15.3125 C6.42846403 22.07512757 3.93843441 26.97647909 -0.875 31.6875 C-5.59342268 35.38545011 -11.01410123 36.64311051 -16.95703125 36.1171875 C-23.05387917 34.83486767 -27.33712101 32.18361001 -31.0625 27.25 C-34.39172761 21.45467787 -34.47288211 15.85998392 -33.75 9.3125 C-31.59483049 3.39786439 -27.2861324 -0.80177551 -21.75 -3.6875 C-13.71861236 -6.13590361 -6.9280775 -4.25132029 0 0 Z M-21.75 10.3125 C-23.31935594 13.45121188 -23.10201103 15.85105822 -22.75 19.3125 C-20.32146618 22.5981634 -18.62725186 24.02008271 -14.75 25.3125 C-11.12396827 25.3125 -9.58935889 24.52089025 -6.75 22.3125 C-4.2584096 18.5751144 -4.29206715 16.73918417 -4.75 12.3125 C-6.29159838 9.35776977 -7.43087964 7.78341771 -10.62109375 6.64453125 C-15.64797198 5.68476811 -18.1304804 6.47361558 -21.75 10.3125 Z " fill="#000000" transform="translate(267.75,407.6875)"/>
<path d="M0 0 C1.07585609 -0.00525696 1.07585609 -0.00525696 2.17344666 -0.01062012 C4.55070601 -0.01944171 6.92766911 -0.01358628 9.30493164 -0.00683594 C10.95398516 -0.00818262 12.6030383 -0.01012317 14.25209045 -0.01263428 C17.71139295 -0.01558624 21.17059229 -0.01128618 24.62988281 -0.00195312 C29.06654304 0.00943257 33.50296108 0.00288806 37.93961239 -0.00909805 C41.34621508 -0.01632235 44.75276029 -0.01402595 48.1593647 -0.00884247 C49.79525341 -0.00750709 51.43114731 -0.00914981 53.06702995 -0.01380157 C55.35342111 -0.0188752 57.63941938 -0.01114463 59.92578125 0 C61.22768906 0.00159119 62.52959686 0.00318237 63.87095642 0.00482178 C67.02758789 0.25878906 67.02758789 0.25878906 70.02758789 2.25878906 C70.41265778 5.27516985 70.6394219 7.32122517 68.94029236 9.92494202 C66.03131624 11.95355086 63.56555682 11.64797752 60.04931641 11.6628418 C59.34329285 11.66970505 58.63726929 11.6765683 57.90985107 11.68363953 C55.57519437 11.70194596 53.24120724 11.69806469 50.90649414 11.69238281 C49.28368409 11.69694298 47.66087597 11.70224805 46.03807068 11.70826721 C42.63597776 11.71720597 39.23411949 11.71476683 35.83203125 11.70483398 C31.47262565 11.69334635 27.11403031 11.71354806 22.75473118 11.74275112 C19.40295772 11.7611001 16.05137887 11.76082326 12.69956779 11.7551136 C11.09240521 11.75496021 9.48522957 11.76101943 7.8781147 11.77340508 C5.6299781 11.78828862 3.38334359 11.7776594 1.13525391 11.76049805 C-0.78310524 11.76024879 -0.78310524 11.76024879 -2.74021912 11.75999451 C-5.97241211 11.25878906 -5.97241211 11.25878906 -8.42445374 9.39149475 C-9.97241211 7.25878906 -9.97241211 7.25878906 -9.84741211 4.63378906 C-7.91979817 -0.5983059 -5.08505909 0.00621874 0 0 Z " fill="#000000" transform="translate(173.972412109375,289.7412109375)"/>
<path d="M0 0 C1.07585609 -0.0076664 1.07585609 -0.0076664 2.17344666 -0.01548767 C4.55069258 -0.02941809 6.92764969 -0.02842432 9.30493164 -0.02612305 C10.95398568 -0.03000819 12.60303872 -0.03434248 14.25209045 -0.03910828 C17.71138754 -0.04657797 21.17058259 -0.04627389 24.62988281 -0.04101562 C29.06662151 -0.03522102 33.50294274 -0.05214791 37.93961239 -0.0753603 C41.34622141 -0.09008076 44.75272951 -0.09097164 48.1593647 -0.08785057 C49.79526153 -0.08836467 51.43116388 -0.093619 53.06702995 -0.10366249 C55.3535575 -0.11597682 57.63926714 -0.10926601 59.92578125 -0.09765625 C61.87864296 -0.09860039 61.87864296 -0.09860039 63.87095642 -0.0995636 C67.02758789 0.2746582 67.02758789 0.2746582 68.98316956 1.57136536 C70.02758789 3.2746582 70.02758789 3.2746582 69.84008789 6.8996582 C69.57196289 8.0134082 69.30383789 9.1271582 69.02758789 10.2746582 C66.08451943 11.74619244 63.44843108 11.42639792 60.1628418 11.45166016 C59.1040255 11.46151695 59.1040255 11.46151695 58.02381897 11.47157288 C55.68392841 11.49131116 53.344102 11.50296882 51.00415039 11.51293945 C49.80632494 11.51905274 49.80632494 11.51905274 48.58430099 11.52528954 C44.35869352 11.54615132 40.13311855 11.56045324 35.9074707 11.56982422 C31.54026546 11.58089638 27.17356867 11.61530477 22.80654335 11.65499592 C19.45052128 11.68112264 16.09462115 11.68951245 12.73850632 11.6931057 C11.12852922 11.69798096 9.5185579 11.70962169 7.90867996 11.72814369 C5.65574912 11.7524554 3.40414451 11.75158569 1.15112305 11.74462891 C-0.13079926 11.75049515 -1.41272156 11.75636139 -2.73348999 11.7624054 C-5.97241211 11.2746582 -5.97241211 11.2746582 -8.42544556 9.40934753 C-9.97241211 7.2746582 -9.97241211 7.2746582 -9.84741211 4.6496582 C-7.92102823 -0.57909805 -5.08322974 0.01800031 0 0 Z " fill="#000000" transform="translate(173.972412109375,348.725341796875)"/>
<path d="M0 0 C0.69612396 -0.0049649 1.39224792 -0.00992981 2.10946655 -0.01504517 C4.41690045 -0.02967368 6.72426559 -0.03646991 9.03173828 -0.04199219 C10.63355512 -0.04774309 12.23537193 -0.05350083 13.83718872 -0.05926514 C17.19810304 -0.0697771 20.55899342 -0.07561847 23.91992188 -0.07910156 C28.22650193 -0.08458662 32.53276586 -0.10861384 36.83924675 -0.13707352 C40.14894535 -0.15569753 43.45856778 -0.16090536 46.76831436 -0.16243744 C48.35594537 -0.16546507 49.943575 -0.17349734 51.53115463 -0.18662262 C53.75278518 -0.20367862 55.97364303 -0.2018044 58.1953125 -0.1953125 C60.09154861 -0.20078094 60.09154861 -0.20078094 62.02609253 -0.20635986 C65.44461412 0.18611062 66.87399856 0.681549 69.22705078 3.16113281 C69.60205078 6.22363281 69.60205078 6.22363281 69.22705078 9.16113281 C66.3307133 12.05747029 64.21827176 11.42821828 60.1628418 11.45166016 C59.07235535 11.46173599 59.07235535 11.46173599 57.95983887 11.47201538 C55.55014259 11.49105546 53.1407239 11.49492249 50.73095703 11.49707031 C49.05948266 11.50349386 47.38800944 11.51022188 45.71653748 11.51724243 C42.21016838 11.52923007 38.70389792 11.53292171 35.19750977 11.53173828 C30.70013888 11.53153496 26.20339896 11.55884409 21.70617771 11.5932827 C18.25324081 11.61549857 14.80045705 11.61957747 11.34745598 11.61851883 C9.68921673 11.62088255 8.03097374 11.62974928 6.37280464 11.64518356 C4.05496914 11.66473818 1.73851106 11.6590485 -0.5793457 11.64697266 C-1.8990184 11.64982269 -3.2186911 11.65267273 -4.57835388 11.65560913 C-7.77294922 11.16113281 -7.77294922 11.16113281 -9.76551819 9.32998657 C-10.77294922 7.16113281 -10.77294922 7.16113281 -10.08544922 3.97363281 C-7.82978898 -0.85992485 -4.96765462 0.02686525 0 0 Z " fill="#000000" transform="translate(174.77294921875,328.8388671875)"/>
<path d="M0 0 C0.72874329 -0.00379669 1.45748657 -0.00759338 2.20831299 -0.01150513 C4.61774702 -0.01891638 7.02597587 0.00247626 9.43530273 0.02490234 C11.10774087 0.0272863 12.78018171 0.02819219 14.45262146 0.02767944 C17.9573544 0.03080829 21.46167849 0.04738115 24.96630859 0.07421875 C29.4647219 0.10822513 33.96268633 0.11584667 38.46121311 0.11432838 C41.91412157 0.11487148 45.36693136 0.12582842 48.81980705 0.14033127 C50.47884308 0.14670701 52.13789032 0.15063997 53.79693794 0.15211868 C56.11221606 0.15644207 58.42701243 0.17392083 60.7421875 0.1953125 C62.06106461 0.2029361 63.37994171 0.21055969 64.73878479 0.21841431 C67.80639648 0.48583984 67.80639648 0.48583984 69.80639648 2.48583984 C70.05639648 5.48583984 70.05639648 5.48583984 69.80639648 8.48583984 C67.36506411 10.92717222 66.06530838 10.72042116 62.73449707 10.73468018 C62.03103149 10.72748962 61.32756592 10.72029907 60.6027832 10.71289062 C59.86121979 10.71318268 59.11965637 10.71347473 58.35562134 10.71377563 C55.89899078 10.71237979 53.44266171 10.69680683 50.98608398 10.68115234 C49.28500535 10.67742311 47.58392457 10.67457572 45.88284302 10.6725769 C41.40128672 10.66493333 36.91985966 10.64527869 32.43835449 10.62316895 C27.86704252 10.60272606 23.29570972 10.59357853 18.72436523 10.58349609 C9.75165215 10.56203343 0.77903505 10.52788881 -8.19360352 10.48583984 C-10.47578506 5.20078785 -10.47578506 5.20078785 -9.26820374 2.14120483 C-6.20434486 -0.30350941 -3.88916247 -0.00839925 0 0 Z " fill="#000000" transform="translate(174.193603515625,309.51416015625)"/>
<path d="M0 0 C1.07810692 -0.00642769 1.07810692 -0.00642769 2.17799377 -0.01298523 C3.69685819 -0.01872325 5.21575009 -0.01923266 6.73461914 -0.01489258 C9.05467789 -0.01173471 11.37345846 -0.03518873 13.69335938 -0.06054688 C15.17057131 -0.0628202 16.64778667 -0.06352321 18.125 -0.0625 C19.16266762 -0.07631462 19.16266762 -0.07631462 20.22129822 -0.09040833 C24.31141095 -0.05125592 26.65214952 0.42845547 29.62890625 3.30078125 C28.75390625 10.17578125 28.75390625 10.17578125 27.62890625 11.30078125 C24.99776942 11.43895119 22.39472809 11.51389718 19.76171875 11.5390625 C18.9711911 11.54713425 18.18066345 11.55520599 17.36618042 11.56352234 C15.68994348 11.5773775 14.01367815 11.58809323 12.33740234 11.59594727 C9.77126712 11.61316477 7.20641858 11.65703608 4.640625 11.70117188 C3.01433242 11.71129802 1.38802886 11.71981437 -0.23828125 11.7265625 C-1.00711639 11.74407059 -1.77595154 11.76157867 -2.56808472 11.77961731 C-7.87621321 11.75796745 -7.87621321 11.75796745 -10.38720703 9.43823242 C-11.690643 6.60657438 -11.43880661 5.19885901 -10.37109375 2.30078125 C-6.77783483 -0.0947247 -4.15221048 -0.00545451 0 0 Z " fill="#000000" transform="translate(244.37109375,72.69921875)"/>
<path d="M0 0 C2.55078958 2.22165544 2.93332671 3.60829443 3.5 6.9375 C2.81810427 11.11411135 1.36996335 12.50915752 -2 15 C-5.37817188 15.55153827 -7.2135552 15.3613395 -10.3125 13.9375 C-12.82814308 11.04916906 -12.93488709 8.77654862 -13 5 C-11.75 2.125 -11.75 2.125 -10 0 C-6.20519658 -1.26493447 -3.87641726 -0.89988258 0 0 Z " fill="#000000" transform="translate(64,276)"/>
<path d="M0 0 C4.11289267 0.85685264 5.59686932 2.20235933 8 5.625 C8 9.17095558 7.72088444 11.48676141 5.8125 14.5 C3.15800608 16.14761692 1.11672513 16.50033099 -2 16.625 C-6.56521739 14.49456522 -6.56521739 14.49456522 -8 11.625 C-8.54035146 7.57236402 -8.34199395 6.08769769 -5.875 2.75 C-3 0.625 -3 0.625 0 0 Z " fill="#000000" transform="translate(453,353.375)"/>
<path d="M0 0 C2.55078958 2.22165544 2.93332671 3.60829443 3.5 6.9375 C2.81810427 11.11411135 1.36996335 12.50915752 -2 15 C-5.37817188 15.55153827 -7.2135552 15.3613395 -10.3125 13.9375 C-12.79606431 11.08600024 -12.86954315 8.7180202 -13 5 C-12.21270916 2.35183989 -11.47719891 1.37115471 -9.3125 -0.3125 C-5.89259577 -1.32922829 -3.42890226 -0.87281149 0 0 Z " fill="#000000" transform="translate(443,148)"/>
<path d="M0 0 C2.48038907 3.7205836 2.46337203 5.59796571 2 10 C0.4375 12.4375 0.4375 12.4375 -2 14 C-5.63019782 14.45377473 -8.02317947 14.43699866 -11.375 12.9375 C-13.83289714 10.00693033 -14 7.77910616 -14 4 C-10.09305917 -2.41854566 -6.77291658 -2.46287876 0 0 Z " fill="#000000" transform="translate(119,454)"/>
<path d="M0 0 C2.5 1.5625 2.5 1.5625 4 4 C4.55802097 7.90614682 4.58392818 10.05111671 2.5 13.4375 C-0.53037069 15.33148168 -2.55830934 15.64334247 -6.08984375 15.4453125 C-8 15 -8 15 -10.5625 12.9375 C-12.43625505 9.10852228 -12.12962701 7.06665724 -11 3 C-8.71707037 -1.16298932 -4.22696498 -0.74843646 0 0 Z " fill="#000000" transform="translate(58,54)"/>
<path d="M0 0 C2.73883355 1.59029045 2.94967699 2.83465297 3.875 5.875 C4.0235372 9.58842999 3.18476995 11.05896353 1 14 C0 15 0 15 -3.8125 15.3125 C-6.8307722 15.25831199 -7.86175828 15.08640108 -10.5 13.4375 C-12.58392818 10.05111671 -12.55802097 7.90614682 -12 4 C-8.93537785 -0.980011 -5.34000819 -0.59333424 0 0 Z " fill="#000000" transform="translate(403,443)"/>
<path d="M0 0 C2.4375 1.5625 2.4375 1.5625 4 4 C4.45746657 7.65973254 4.46134558 10.02604821 2.875 13.375 C0.25065402 15.64943318 -1.54847562 15.93096951 -5 16 C-7.32731556 14.86220128 -9.16840714 13.83159286 -11 12 C-11.57971014 4.92753623 -11.57971014 4.92753623 -9.4375 1.5 C-6.05111671 -0.58392818 -3.90614682 -0.55802097 0 0 Z " fill="#000000" transform="translate(107,103)"/>
<path d="M0 0 C2.4375 1.5625 2.4375 1.5625 4 4 C4.46126687 7.69013497 4.48520386 10.02959229 2.8125 13.375 C0.49060303 15.45670073 -0.89157139 15.85197959 -4 16 C-7.09653751 15.0638375 -8.70423322 14.29576678 -11 12 C-11.67039106 5.0726257 -11.67039106 5.0726257 -9.4375 1.5 C-6.05111671 -0.58392818 -3.90614682 -0.55802097 0 0 Z " fill="#000000" transform="translate(422,44)"/>
</svg>
